<svg width="502" height="90" viewBox="0 0 502 90" fill="none" xmlns="http://www.w3.org/2000/svg">
<path d="M56.7 9.8V23.5H38.1V80H21V23.5H2.4V9.8H56.7ZM88.632 80.525C83.682 80.525 79.132 79.375 74.982 77.075C70.882 74.775 67.607 71.575 65.157 67.475C62.757 63.325 61.557 58.675 61.557 53.525C61.557 48.375 62.757 43.75 65.157 39.65C67.607 35.55 70.882 32.35 74.982 30.05C79.132 27.75 83.682 26.6 88.632 26.6C93.582 26.6 98.107 27.75 102.207 30.05C106.357 32.35 109.607 35.55 111.957 39.65C114.357 43.75 115.557 48.375 115.557 53.525C115.557 58.675 114.357 63.325 111.957 67.475C109.557 71.575 106.307 74.775 102.207 77.075C98.107 79.375 93.582 80.525 88.632 80.525ZM88.632 68.825C92.832 68.825 96.182 67.425 98.682 64.625C101.232 61.825 102.507 58.125 102.507 53.525C102.507 48.875 101.232 45.175 98.682 42.425C96.182 39.625 92.832 38.225 88.632 38.225C84.382 38.225 80.982 39.6 78.432 42.35C75.932 45.1 74.682 48.825 74.682 53.525C74.682 58.175 75.932 61.9 78.432 64.7C80.982 67.45 84.382 68.825 88.632 68.825ZM147.592 80.525C142.642 80.525 138.092 79.375 133.942 77.075C129.842 74.775 126.567 71.575 124.117 67.475C121.717 63.325 120.517 58.675 120.517 53.525C120.517 48.375 121.717 43.75 124.117 39.65C126.567 35.55 129.842 32.35 133.942 30.05C138.092 27.75 142.642 26.6 147.592 26.6C152.542 26.6 157.067 27.75 161.167 30.05C165.317 32.35 168.567 35.55 170.917 39.65C173.317 43.75 174.517 48.375 174.517 53.525C174.517 58.675 173.317 63.325 170.917 67.475C168.517 71.575 165.267 74.775 161.167 77.075C157.067 79.375 152.542 80.525 147.592 80.525ZM147.592 68.825C151.792 68.825 155.142 67.425 157.642 64.625C160.192 61.825 161.467 58.125 161.467 53.525C161.467 48.875 160.192 45.175 157.642 42.425C155.142 39.625 151.792 38.225 147.592 38.225C143.342 38.225 139.942 39.6 137.392 42.35C134.892 45.1 133.642 48.825 133.642 53.525C133.642 58.175 134.892 61.9 137.392 64.7C139.942 67.45 143.342 68.825 147.592 68.825ZM194.477 70.1H211.277V80H181.652V27.35H194.477V70.1Z" fill="#55A679"/>
<path d="M298.444 9.8V80H281.344V37.9L265.644 80H251.844L236.044 37.8V80H218.944V9.8H239.144L258.844 58.4L278.344 9.8H298.444ZM341.966 70.7H322.316L319.166 80H305.741L324.791 27.35H339.641L358.691 80H345.116L341.966 70.7ZM338.666 60.8L332.141 41.525L325.691 60.8H338.666ZM395.014 80L377.314 56.75V80H364.489V27.35H377.314V50.45L394.864 27.35H409.939L389.539 53.15L410.689 80H395.014ZM429.609 37.625V48.275H446.784V58.175H429.609V69.725H449.034V80H416.784V27.35H449.034V37.625H429.609ZM484.21 80L473.26 60.125H470.185V80H457.36V27.35H478.885C483.035 27.35 486.56 28.075 489.46 29.525C492.41 30.975 494.61 32.975 496.06 35.525C497.51 38.025 498.235 40.825 498.235 43.925C498.235 47.425 497.235 50.55 495.235 53.3C493.285 56.05 490.385 58 486.535 59.15L498.685 80H484.21ZM470.185 51.05H478.135C480.485 51.05 482.235 50.475 483.385 49.325C484.585 48.175 485.185 46.55 485.185 44.45C485.185 42.45 484.585 40.875 483.385 39.725C482.235 38.575 480.485 38 478.135 38H470.185V51.05Z" fill="#4D4D4D"/>
</svg>
