<svg width="90" height="90" viewBox="0 0 90 90" fill="none" xmlns="http://www.w3.org/2000/svg">
<g clip-path="url(#clip0_163_206)">
<mask id="mask0_163_206" style="mask-type:alpha" maskUnits="userSpaceOnUse" x="7" y="0" width="71" height="76">
<rect x="13.2354" width="64.0588" height="14.8235" fill="#D9D9D9"/>
<rect x="36.9597" y="0.464172" width="45.2199" height="15.77" transform="rotate(30.7565 36.9597 0.464172)" fill="#D9D9D9"/>
<rect x="14.2355" y="11.2137" width="64.0588" height="6.09644" transform="rotate(30.7565 14.2355 11.2137)" fill="#D9D9D9"/>
<rect x="12.1177" y="22.3941" width="64.0588" height="6.09644" transform="rotate(30.7565 12.1177 22.3941)" fill="#D9D9D9"/>
<rect x="12.1177" y="35.3647" width="64.0588" height="8.37524" transform="rotate(30.7565 12.1177 35.3647)" fill="#D9D9D9"/>
</mask>
<g mask="url(#mask0_163_206)">
<path d="M14.2942 14.7625V0H45.0001V64.0588L30.132 14.7625H14.2942Z" fill="#55A679"/>
<path d="M75.7059 14.7625V0H45V64.0588L59.8682 14.7625H75.7059Z" fill="#55A679"/>
</g>
<path d="M26.6786 18.5294H0V90H18.9643V53.3348L31.5 90H45V78.841L26.6786 18.5294Z" fill="#4D4D4D"/>
<path d="M63.3214 18.5294H90V90H71.0357V53.3348L58.5 90H45V78.841L63.3214 18.5294Z" fill="#4D4D4D"/>
</g>
<defs>
<clipPath id="clip0_163_206">
<rect width="90" height="90" fill="white"/>
</clipPath>
</defs>
</svg>
